# xmcd
#
# Track frame offsets:
# 150
# 22860
# 43198
# 63390
# 89485
# 107549
# 127954
# 154127
# 178827
# 203921
# 238735
#
# Disc length: 3698 seconds
#
#
# Revision: 2
# Processed by: cddbd v1.4PL0 Copyright (c) Steve Scherf et al.
# Submitted via: FreeRIP 2.30 
#
DISCID=900e700b
DTITLE=H.I.M. - Love Metal
DYEAR=1900
DGENRE=
TTITLE0=Buried Alive by Love
TTITLE1=The Funeral of Hearts
TTITLE2=Beyond Redemption
TTITLE3=Sweet Pandemonium
TTITLE4=Soul of Fire
TTITLE5=The Sacrament
TTITLE6=This Fortress of Love
TTITLE7=Circle of Fear
TTITLE8=Endless Dark
TTITLE9=The Path
TTITLE10=Love's Requiem
EXTD=
EXTT0=
EXTT1=
EXTT2=
EXTT3=
EXTT4=
EXTT5=
EXTT6=
EXTT7=
EXTT8=
EXTT9=
EXTT10=
PLAYORDER=
